#!OML:ASF F:\Work\Patient Classification 1\justin\Session 1\justin.ASF
:FULLY-SPECIFIED
:DEGREES
2625
root 1.01017 16.6903 0.128268 -1.68854 40.3798 -1.06999
lowerback 15.0077 -3.4272 -2.4356
upperback -0.269727 -4.77892 2.12707
thorax -8.32124 -2.15093 4.69511
lowerneck -9.27098 -13.4975 -21.9501
upperneck 8.72562 -18.154 21.2457
head 8.3411 -8.34948 8.34734
rclavicle 7.196e-014 -4.77083e-015
rhumerus -27.0812 -12.5988 -67.1316
rradius 135.814
rwrist -6.94867
rhand -21.0475 32.2986
rfingers 7.12502
rthumb 5.32846 2.38562
lclavicle 7.196e-014 -4.77083e-015
lhumerus -4.96626 -34.5092 99.9366
lradius 125.247
lwrist 3.91596
lhand -11.0634 10.6641
lfingers 7.12502
lthumb 14.9594 40.1038
rfemur -30.5918 -0.480589 4.9982
rtibia 46.8292
rfoot -8.1185 -4.23541
rtoes -25.656
lfemur 2.51613 5.02151 -9.69639
ltibia 37.7673
lfoot -32.8846 -0.337683
ltoes -19.8338
2626
root 1.01453 16.6802 0.106645 -1.7964 39.6844 -1.20081
lowerback 14.9867 -3.32266 -2.27697
upperback -0.334777 -4.61683 2.08347
thorax -8.41121 -2.0767 4.52782
lowerneck -9.30742 -13.3434 -21.8813
upperneck 8.71018 -17.9699 21.4363
head 8.3178 -8.24842 8.44304
rclavicle -1.08139e-013 2.08724e-014
rhumerus -27.0865 -12.3143 -67.2184
rradius 135.589
rwrist -6.85667
rhand -20.8915 32.1728
rfingers 7.12502
rthumb 5.47908 2.2636
lclavicle -1.08139e-013 2.08724e-014
lhumerus -5.01675 -34.3843 100.056
lradius 125.15
lwrist 3.76719
lhand -10.8376 10.6484
lfingers 7.12502
lthumb 15.1769 40.0718
rfemur -30.7471 -0.362648 5.1653
rtibia 46.6359
rfoot -7.87896 -3.71079
rtoes -28.6754
lfemur 2.5958 5.32226 -9.73808
ltibia 37.9493
lfoot -32.9868 -0.0172115
ltoes -19.5953
2627
root 1.02108 16.6721 0.0917626 -1.86634 39.1173 -1.16274
lowerback 14.9005 -3.32132 -2.33949
upperback -0.36138 -4.63006 2.0384
thorax -8.38916 -2.08247 4.51176
lowerneck -9.42704 -13.2274 -21.6365
upperneck 8.89348 -17.8086 21.2198
head 8.31111 -8.16622 8.35666
rclavicle 3.88873e-014 1.55052e-014
rhumerus -27.01 -11.8055 -67.3829
rradius 135.251
rwrist -6.83838
rhand -20.7889 31.9998
rfingers 7.12502
rthumb 5.57813 2.0932
lclavicle 3.88873e-014 1.55052e-014
lhumerus -5.33175 -34.2728 100.197
lradius 125.245
lwrist 3.03668
lhand -10.8472 11.049
lfingers 7.12502
lthumb 15.1677 40.4731
rfemur -30.6809 -0.300192 5.18256
rtibia 46.3852
rfoot -7.67359 -3.14975
rtoes -31.9785
lfemur 2.83776 5.57042 -9.87775
ltibia 37.9253
lfoot -33.0027 0.236922
ltoes -19.4873
2628
root 1.03071 16.6903 0.0737444 -1.85912 38.517 -1.12067
lowerback 14.7587 -3.34968 -2.48107
upperback -0.446718 -4.69382 2.02698
thorax -8.38596 -2.10756 4.58551
lowerneck -9.22043 -13.039 -21.233
upperneck 8.88087 -17.5804 20.8932
head 8.14055 -8.07637 8.23247
rclavicle -2.71838e-014 1.94809e-014
rhumerus -26.7476 -11.1776 -67.6032
rradius 134.793
rwrist -6.78927
rhand -20.6858 31.8627
rfingers 7.12502
rthumb 5.67768 1.95881
lclavicle -2.71838e-014 1.94809e-014
lhumerus -5.88434 -34.1143 100.382
lradius 125.372
lwrist 2.36589
lhand -11.0901 11.0703
lfingers 7.12502
lthumb 14.9337 40.512
rfemur -30.7628 -0.0496772 5.10173
rtibia 46.0355
rfoot -7.4559 -2.53864
rtoes -31.3578
lfemur 3.04931 5.90018 -10.0517
ltibia 37.7585
lfoot -32.9363 0.740421
ltoes -19.725
2629
root 1.04393 16.7203 0.0506551 -1.87304 37.8511 -1.13544
lowerback 14.6425 -3.38284 -2.53811
upperback -0.465181 -4.74141 2.08952
thorax -8.32605 -2.12915 4.68588
lowerneck -9.43654 -12.9005 -21.1165
upperneck 8.98362 -17.3571 20.7892
head 8.13898 -7.95844 8.21214
rclavicle -1.5048e-013 -2.18663e-015
rhumerus -26.1823 -10.5931 -67.7863
rradius 134.244
rwrist -6.8065
rhand -20.3289 31.709
rfingers 7.12502
rthumb 6.0223 1.81459
lclavicle -1.5048e-013 -2.18663e-015
lhumerus -6.12447 -33.8088 100.535
lradius 125.34
lwrist 2.0545
lhand -11.1012 10.6434
lfingers 7.12502
lthumb 14.923 40.0858
rfemur -30.9341 0.275477 5.0046
rtibia 45.6159
rfoot -6.36339 -2.23395
rtoes -11.4587
lfemur 3.28412 6.28462 -10.2097
ltibia 37.5064
lfoot -32.8283 1.35205
ltoes -20.113
2630
root 1.0632 16.7278 0.0227986 -1.92484 37.2523 -1.08581
lowerback 14.6157 -3.45976 -2.46017
upperback -0.405021 -4.82707 2.11116
thorax -8.24206 -2.1771 4.67667
lowerneck -10.2667 -12.8388 -21.0877
upperneck 9.42795 -17.1696 20.7084
head 8.37679 -7.81661 8.18246
rclavicle 1.17283e-013 -2.74323e-014
rhumerus -25.5723 -10.0824 -67.9298
rradius 133.739
rwrist -6.88067
rhand -20.074 31.9526
rfingers 7.12502
rthumb 6.26837 2.06531
lclavicle 1.17283e-013 -2.74323e-014
lhumerus -6.13082 -33.5807 100.678
lradius 125.265
lwrist 2.00035
lhand -11.0061 10.4679
lfingers 7.12502
lthumb 15.0146 39.9035
rfemur -30.8181 0.268445 4.94252
rtibia 45.1735
rfoot -6.93864 -1.14113
rtoes -27.5952
lfemur 3.64284 6.43858 -10.495
ltibia 37.229
lfoot -32.7841 1.77083
ltoes -19.8108
2631
root 1.08626 16.7309 -0.00962069 -1.90881 36.6251 -0.917075
lowerback 14.6238 -3.49231 -2.45484
upperback -0.485289 -4.87622 2.05246
thorax -8.33509 -2.19852 4.62611
lowerneck -10.5771 -12.6904 -20.8077
upperneck 9.82123 -16.9598 20.4517
head 8.45796 -7.69883 8.07967
rclavicle 1.66731e-014 -1.11319e-014
rhumerus -25.4319 -9.6031 -68.0494
rradius 133.548
rwrist -6.88537
rhand -19.9656 31.8088
rfingers 7.12502
rthumb 6.37304 1.92464
lclavicle 1.66731e-014 -1.11319e-014
lhumerus -6.57512 -33.6177 101.061
lradius 125.303
lwrist 1.98225
lhand -11.0705 10.7796
lfingers 7.12502
lthumb 14.9526 40.2198
rfemur -30.6419 0.0115049 4.85552
rtibia 44.7298
rfoot -6.79032 -0.448861
rtoes -27.6287
lfemur 4.0416 6.4041 -10.9741
ltibia 37.0006
lfoot -32.8861 1.86854
ltoes -17.9499
2632
root 1.1044 16.7449 -0.0400074 -1.88217 35.9178 -0.796268
lowerback 14.5967 -3.52228 -2.59339
upperback -0.65865 -4.94323 2.0515
thorax -8.49087 -2.21797 4.7247
lowerneck -10.6432 -12.553 -20.4985
upperneck 10.3695 -16.8157 20.0527
head 8.54314 -7.63282 7.92181
rclavicle -1.2424e-014 9.14409e-015
rhumerus -25.5079 -9.03539 -68.1913
rradius 133.483
rwrist -6.83912
rhand -19.6069 31.0239
rfingers 7.12502
rthumb 6.71935 1.15048
lclavicle -1.2424e-014 9.14409e-015
lhumerus -7.26323 -33.5493 101.512
lradius 125.045
lwrist 1.46507
lhand -12.1095 9.5993
lfingers 7.12502
lthumb 13.9514 39.1112
rfemur -30.593 -0.0920608 4.82755
rtibia 44.2273
rfoot -5.51909 -0.126055
rtoes -19.5088
lfemur 4.34184 6.49237 -11.3811
ltibia 36.8383
lfoot -33.0137 2.11438
ltoes -16.7835
2633
root 1.11851 16.7578 -0.0679807 -1.99761 35.1573 -0.931046
lowerback 14.4741 -3.60146 -2.69376
upperback -0.754731 -5.05392 2.18929
thorax -8.49447 -2.26323 4.94671
lowerneck -10.8784 -12.4059 -20.2367
upperneck 10.9078 -16.6276 19.7181
head 8.65977 -7.53451 7.79545
rclavicle 6.63692e-014 1.11319e-014
rhumerus -25.4612 -8.45405 -68.3296
rradius 133.284
rwrist -6.75825
rhand -19.3117 31.0421
rfingers 7.12502
rthumb 7.00425 1.178
lclavicle 6.63692e-014 1.11319e-014
lhumerus -7.68725 -33.4073 101.856
lradius 124.997
lwrist 1.28542
lhand -12.8917 9.44359
lfingers 7.12502
lthumb 13.1976 39.0059
rfemur -30.5823 0.0940985 4.99783
rtibia 43.6341
rfoot -4.93475 0.37033
rtoes -19.2052
lfemur 4.54906 6.80865 -11.4773
ltibia 36.7023
lfoot -32.9864 2.83345
ltoes -17.4955
2634
root 1.13697 16.7671 -0.0938094 -2.26186 34.1967 -1.30538
lowerback 14.2785 -3.67394 -2.72215
upperback -0.815254 -5.13085 2.4467
thorax -8.4154 -2.29624 5.24117
lowerneck -11.0234 -12.1158 -19.8951
upperneck 11.2499 -16.2405 19.4096
head 8.65103 -7.34646 7.70493
rclavicle 3.68249e-014 -3.18055e-015
rhumerus -25.3813 -7.83681 -68.4534
rradius 133.143
rwrist -6.91962
rhand -19.1189 32.1449
rfingers 7.12502
rthumb 7.19035 2.28708
lclavicle 3.68249e-014 -3.18055e-015
lhumerus -7.97467 -33.2548 102.224
lradius 124.851
lwrist 0.887648
lhand -13.0537 10.8652
lfingers 7.12502
lthumb 13.0415 40.4375
rfemur -30.5507 0.593005 5.34861
rtibia 42.9119
rfoot -5.25148 1.31862
rtoes -27.3823
lfemur 4.83698 7.44549 -11.2682
ltibia 36.5316
lfoot -32.904 3.43342
ltoes -17.9424
2635
root 1.16279 16.7746 -0.125838 -2.42074 33.1097 -1.56486
lowerback 14.0586 -3.76264 -2.72277
upperback -0.820279 -5.22553 2.68631
thorax -8.26363 -2.34326 5.49777
lowerneck -11.5135 -11.8646 -19.6173
upperneck 11.7372 -15.854 19.0839
head 8.75932 -7.14125 7.60484
rclavicle 7.03201e-014 -5.1684e-015
rhumerus -25.0447 -7.0603 -68.6729
rradius 132.935
rwrist -6.56715
rhand -19.556 32.8682
rfingers 7.12502
rthumb 6.76842 2.99639
lclavicle 7.03201e-014 -5.1684e-015
lhumerus -8.02809 -32.927 102.41
lradius 124.573
lwrist 0.68181
lhand -12.8376 11.7725
lfingers 7.12502
lthumb 13.2497 41.3314
rfemur -30.5437 1.18125 5.56824
rtibia 42.1304
rfoot -4.85107 1.81491
rtoes -26.5778
lfemur 5.12139 8.1625 -11.221
ltibia 36.3481
lfoot -32.8823 4.00488
ltoes -17.9021
2636
root 1.18982 16.7936 -0.159535 -2.51207 32.108 -1.76317
lowerback 14.004 -3.85798 -2.53341
upperback -0.934206 -5.31188 2.79101
thorax -8.3543 -2.38624 5.52351
lowerneck -11.9622 -11.6727 -19.3479
upperneck 12.2414 -15.5773 18.8326
head 8.90049 -6.98581 7.51482
rclavicle -7.1811e-015 -6.75868e-015
rhumerus -24.9521 -6.35607 -68.9524
rradius 132.526
rwrist -5.35077
rhand -20.6686 32.3684
rfingers 7.12502
rthumb 5.6943 2.46492
lclavicle -7.1811e-015 -6.75868e-015
lhumerus -8.13257 -32.4434 102.472
lradius 124.263
lwrist 1.50456
lhand -12.4649 10.4668
lfingers 7.12502
lthumb 13.6089 40.002
rfemur -30.515 1.74217 5.73592
rtibia 41.365
rfoot -4.45086 2.19089
rtoes -26.3245
lfemur 5.3614 8.68292 -11.3059
ltibia 36.1099
lfoot -32.8197 4.6982
ltoes -18.1756
2637
root 1.21212 16.8084 -0.182561 -2.7614 31.0789 -2.14574
lowerback 14.1506 -3.96731 -2.1905
upperback -1.21275 -5.39533 2.86675
thorax -8.7567 -2.4209 5.46334
lowerneck -12.0702 -11.3994 -18.8726
upperneck 12.6839 -15.256 18.4759
head 8.92439 -6.82782 7.37403
rclavicle 7.442e-015 -8.74653e-015
rhumerus -25.2187 -5.83304 -69.2458
rradius 132.182
rwrist -4.64227
rhand -21.0092 31.8002
rfingers 7.12502
rthumb 5.36544 1.88816
lclavicle 7.442e-015 -8.74653e-015
lhumerus -8.84318 -32.7182 102.74
lradius 124.052
lwrist -0.195721
lhand -10.4819 14.8921
lfingers 7.12502
lthumb 15.5196 44.2893
rfemur -30.4271 2.4143 6.12935
rtibia 40.689
rfoot -4.14614 2.49637
rtoes -25.6313
lfemur 5.75023 9.21294 -11.0947
ltibia 35.8583
lfoot -32.791 5.1132
ltoes -18.1575
